<?xml version="1.0" standalone="no"?><!DOCTYPE svg PUBLIC "-//W3C//DTD SVG 1.1//EN" "http://www.w3.org/Graphics/SVG/1.1/DTD/svg11.dtd"><svg t="1762092597654" class="icon" viewBox="0 0 1024 1024" version="1.1" xmlns="http://www.w3.org/2000/svg" p-id="12995" xmlns:xlink="http://www.w3.org/1999/xlink" width="200" height="200"><path d="M736.641701 572.118869a33.21382 33.21382 0 1 0-17.194492-64.139164l-361.208021 96.796328-12.122735-45.151003 327.80865-275.235564a33.21382 33.21382 0 0 0-15.586374-58.015946L216.539261 148.008698a33.21382 33.21382 0 0 0-5.937666 1.608118 33.151969 33.151969 0 0 0-6.803576 1.85552 30.925344 30.925344 0 0 0-4.5151 1.175163 33.151969 33.151969 0 0 0-7.050979 1.855521 33.27567 33.27567 0 0 0-4.205847 4.762503 33.21382 33.21382 0 0 0-4.205847 4.948055 33.21382 33.21382 0 0 0-2.597728 7.050979 33.090118 33.090118 0 0 0-2.041073 4.5151 33.27567 33.27567 0 0 0 1.608118 5.937666 33.27567 33.27567 0 0 0 1.731819 6.494322l205.282435 765.649674a33.21382 33.21382 0 1 0 64.139164-17.194491l-40.574051-151.534187 356.754771-95.621165a33.21382 33.21382 0 1 0-17.256342-64.139164l-361.14617 96.858178-14.225659-53.253442z m-409.451558-83.374728L255.690747 222.662479l320.881372 56.655231z" fill="#58D1FF" p-id="12996"></path></svg>