<?xml version="1.0" standalone="no"?><!DOCTYPE svg PUBLIC "-//W3C//DTD SVG 1.1//EN" "http://www.w3.org/Graphics/SVG/1.1/DTD/svg11.dtd"><svg t="1762092599564" class="icon" viewBox="0 0 1024 1024" version="1.1" xmlns="http://www.w3.org/2000/svg" p-id="13154" xmlns:xlink="http://www.w3.org/1999/xlink" width="200" height="200"><path d="M739.28278 597.560646A32.551234 32.551234 0 1 0 722.310069 534.640384l-354.002249 94.925945-11.63843-43.644113L710.732256 490.996271a32.551234 32.551234 0 1 0-16.912094-62.920263L339.817913 523.001953l-7.516486-28.247439L664.299769 281.868229a32.551234 32.551234 0 0 0-11.941514-59.586337L219.675368 145.056059a32.551234 32.551234 0 0 0-5.819215 1.576037 32.490617 32.490617 0 0 0-6.66785 1.818505 30.611496 30.611496 0 0 0-4.425028 1.151719 32.490617 32.490617 0 0 0-6.910318 1.818505 32.611851 32.611851 0 0 0-4.121944 4.667496 32.551234 32.551234 0 0 0-4.121944 4.849345 32.551234 32.551234 0 0 0-2.545907 6.910318 30.672113 30.672113 0 0 0-2.000355 4.425028 32.611851 32.611851 0 0 0 1.576037 5.819216 32.611851 32.611851 0 0 0 1.697272 6.364766l206.703368 771.045995a32.551234 32.551234 0 0 0 62.920263-16.851477l-8.486356-31.520748 349.698455-93.713609a32.551234 32.551234 0 0 0-16.912093-62.859646l-354.00225 94.925946-12.244598-45.947553 354.002249-94.865328a32.551234 32.551234 0 1 0-16.912094-62.920263l-354.002249 94.925945-11.820281-44.250281 354.00225-94.865329zM314.601314 428.742793l-56.373646-210.340378 301.265613 54.00959z" fill="#58D1FF" p-id="13155"></path></svg>