<?xml version="1.0" standalone="no"?><!DOCTYPE svg PUBLIC "-//W3C//DTD SVG 1.1//EN" "http://www.w3.org/Graphics/SVG/1.1/DTD/svg11.dtd"><svg t="1762092592169" class="icon" viewBox="0 0 1024 1024" version="1.1" xmlns="http://www.w3.org/2000/svg" p-id="12836" xmlns:xlink="http://www.w3.org/1999/xlink" width="200" height="200"><path d="M658.208507 249.117169a34.14393 34.14393 0 0 0-17.739584-65.9353L269.336479 282.688854l-18.629742-69.559515 371.132443-99.506986A34.14393 34.14393 0 0 0 604.163179 47.687054L200.031295 156.03204a34.14393 34.14393 0 0 0-24.161441 41.837442l202.193108 754.282024a34.14393 34.14393 0 1 0 65.998882-17.676001L359.560385 619.295871l371.196026-99.570568A34.14393 34.14393 0 1 0 713.08041 453.790003L341.884384 553.296989 323.318224 484.118969 694.51425 384.675567a34.14393 34.14393 0 0 0-17.676001-65.9353L305.642223 418.18367 287.076063 348.624154z" fill="#58D1FF" p-id="12837"></path></svg>