<?xml version="1.0" standalone="no"?><!DOCTYPE svg PUBLIC "-//W3C//DTD SVG 1.1//EN" "http://www.w3.org/Graphics/SVG/1.1/DTD/svg11.dtd"><svg t="1761226162717" class="icon" viewBox="0 0 1024 1024" version="1.1" xmlns="http://www.w3.org/2000/svg" p-id="11642" xmlns:xlink="http://www.w3.org/1999/xlink" width="200" height="200"><path d="M48 256a176 176 0 0 1 352 0c0 126.56-156.48 233.6-176 388.8C204.48 488.8 48 381.76 48 256z" fill="#ED7899" p-id="11643"></path><path d="M624 576a176 176 0 0 1 352 0c0 126.56-156.48 233.6-176 388.8-19.52-156-176-263.04-176-388.8z" fill="#85CBF8" p-id="11644"></path><path d="M800 576m-80 0a80 80 0 1 0 160 0 80 80 0 1 0-160 0Z" fill="#F9DD8F" p-id="11645"></path><path d="M224 256m-80 0a80 80 0 1 0 160 0 80 80 0 1 0-160 0Z" fill="#F9DD8F" p-id="11646"></path><path d="M224 64A192 192 0 0 0 32 256c0 68.16 40.64 128 83.52 192 40.96 61.12 83.36 124.32 92.64 198.08a16 16 0 0 0 32 0c9.28-73.76 51.68-136.96 92.64-197.92C375.36 384 416 323.52 416 256A192 192 0 0 0 224 64z m81.92 366.24A688.8 688.8 0 0 0 224 576.96a688 688 0 0 0-81.92-146.88C101.92 370.24 64 313.76 64 256a160 160 0 0 1 320 0c0 57.76-37.92 114.24-78.08 174.24zM800 384a192 192 0 0 0-192 192c0 68.16 40.64 128 83.52 192 40.96 61.12 83.36 124.32 92.64 198.08a16 16 0 0 0 32 0c9.28-73.76 51.68-136.96 92.64-197.92C951.36 704 992 643.52 992 576a192 192 0 0 0-192-192z m81.92 366.24A688.8 688.8 0 0 0 800 896.96a688 688 0 0 0-81.92-146.88C677.92 690.24 640 633.76 640 576a160 160 0 0 1 320 0c0 57.76-37.92 114.24-78.08 174.24zM480 544a16 16 0 0 0-16 16v32a16 16 0 0 0 32 0v-32a16 16 0 0 0-16-16zM560 544a16 16 0 0 0-16 16v32a16 16 0 0 0 32 0v-32a16 16 0 0 0-16-16zM320 544a16 16 0 0 0-16 16v32a16 16 0 0 0 32 0v-32a16 16 0 0 0-16-16zM400 544a16 16 0 0 0-16 16v32a16 16 0 0 0 32 0v-32a16 16 0 0 0-16-16z" fill="#8D6C9F" p-id="11647"></path><path d="M800 576m-32 0a32 32 0 1 0 64 0 32 32 0 1 0-64 0Z" fill="#8D6C9F" p-id="11648"></path><path d="M880 560a16 16 0 0 0-16 16 64 64 0 1 1-83.2-61.12 16 16 0 0 0-9.6-30.56A96 96 0 1 0 896 576a16 16 0 0 0-16-16z" fill="#8D6C9F" p-id="11649"></path><path d="M823.68 516.48a64 64 0 0 1 23.2 16 16 16 0 0 0 23.36-21.76 96 96 0 0 0-34.72-23.68 16 16 0 0 0-11.84 29.76z" fill="#8D6C9F" p-id="11650"></path><path d="M224 256m-32 0a32 32 0 1 0 64 0 32 32 0 1 0-64 0Z" fill="#8D6C9F" p-id="11651"></path><path d="M304 240a16 16 0 0 0-16 16 64 64 0 1 1-83.2-61.12 16 16 0 0 0-9.6-30.56A96 96 0 1 0 320 256a16 16 0 0 0-16-16z" fill="#8D6C9F" p-id="11652"></path><path d="M247.68 196.48a64 64 0 0 1 23.2 16 16 16 0 0 0 23.36-21.76 96 96 0 0 0-34.72-23.68 16 16 0 0 0-11.84 29.76z" fill="#8D6C9F" p-id="11653"></path></svg>