<?xml version="1.0" standalone="no"?><!DOCTYPE svg PUBLIC "-//W3C//DTD SVG 1.1//EN" "http://www.w3.org/Graphics/SVG/1.1/DTD/svg11.dtd"><svg t="1761361296008" class="icon" viewBox="0 0 1024 1024" version="1.1" xmlns="http://www.w3.org/2000/svg" p-id="7574" xmlns:xlink="http://www.w3.org/1999/xlink" width="200" height="200"><path d="M110.805333 512a401.194667 401.194667 0 1 0 802.389334 0 401.194667 401.194667 0 1 0-802.389334 0Z" fill="#1971FD" p-id="7575"></path><path d="M331.008 684.629333a17.066667 17.066667 0 0 0 22.912 21.461334l207.786667-91.690667a93.866667 93.866667 0 0 0 50.261333-53.632l81.024-221.354667a17.066667 17.066667 0 0 0-22.912-21.504l-207.786667 91.733334a93.866667 93.866667 0 0 0-50.261333 53.589333l-81.024 221.397333z" fill="#FFFFFF" p-id="7576"></path><path d="M458.410667 512a53.589333 53.589333 0 1 0 107.178666 0 53.589333 53.589333 0 1 0-107.178666 0Z" fill="#B3CDFF" p-id="7577"></path></svg>