<?xml version="1.0" standalone="no"?>
<!DOCTYPE svg PUBLIC "-//W3C//DTD SVG 1.1//EN" "http://www.w3.org/Graphics/SVG/1.1/DTD/svg11.dtd"><svg t="1761225775041"
	class="icon" viewBox="0 0 1228 1024" version="1.1" xmlns="http://www.w3.org/2000/svg" p-id="6101"
	xmlns:xlink="http://www.w3.org/1999/xlink" width="200" height="200">
	<path
		d="M1156.840682 353.824579c-31.727914-41.348636-87.200589-49.638833-134.690112-16.580394L617.875537 89.152368c0-16.478046-7.880804-33.058439-23.744761-49.536485-39.608718-49.638833-95.081394-49.638833-134.690112-16.580394-15.863957 16.580394-23.744761 33.058439-31.727914 57.92903L205.822048 213.198276a106.339686 106.339686 0 0 0-87.098241-16.478045c-47.591871 16.478046-79.319785 66.116879-63.455828 115.653364 7.983153 41.450984 47.591871 66.219227 79.319785 66.219226l55.472675 239.801621c-23.84711 16.478046-47.591871 49.536485-47.591871 82.594924 0 57.92903 39.608718 99.277666 95.183742 99.277667 23.642413 0 47.489523-8.187849 55.370328-24.870591L522.99884 907.834896v16.580393c0 57.826682 39.608718 99.175318 95.081393 99.175319s95.081394-41.348636 95.081394-99.277667c0-16.478046 0-33.058439-7.983152-41.246288l348.700009-380.325575c31.727914 16.478046 71.336632 8.187849 95.183741-16.580393 31.727914-33.058439 39.608718-90.987469 7.880805-132.233758zM649.603451 841.615669c-7.880804 0-15.761609-8.290197-23.744761-8.290197l-47.489523-239.801621c39.608718-16.478046 63.35348-57.826682 71.234284-107.465515l340.819205-16.478045-340.819205 372.035378zM332.631356 717.467412v-16.580394c0-8.187849 0-16.478046-7.880805-24.768242l118.826156-99.277666c15.863957 16.580394 47.591871 24.870591 71.336632 24.87059l47.591871 239.801621-7.983153 8.187849L332.631356 717.672108z m-79.217437-107.465515l-55.472675-239.801621 206.026744 90.98747v16.478045c0 16.580394 0 33.058439 7.983153 49.638834l-118.928503 90.987469c-15.863957-8.290197-23.744761-8.290197-39.608719-8.290197z m190.162788-463.022847s0 8.187849 7.983152 8.187848c15.863957 16.580394 23.744761 24.870591 39.608719 24.870591v165.394545c-23.744761 16.478046-47.591871 33.058439-63.455828 57.826682l-190.162788-82.697273c0-16.478046 7.983153-33.058439 0-49.536485l206.026745-124.045908z m158.537221 0L998.30346 395.070867v8.290197l-364.461618 24.870591a127.014004 127.014004 0 0 0-79.319785-66.219227V196.720231c7.983153 0 15.863957-8.290197 31.727914-16.580394 0-16.478046 7.880804-24.768243 15.863957-33.058439z"
		fill="#05990f" p-id="6102"></path>
</svg>