<?xml version="1.0" standalone="no"?><!DOCTYPE svg PUBLIC "-//W3C//DTD SVG 1.1//EN" "http://www.w3.org/Graphics/SVG/1.1/DTD/svg11.dtd"><svg t="1760322763333" class="icon" viewBox="0 0 1024 1024" version="1.1" xmlns="http://www.w3.org/2000/svg" p-id="10718" xmlns:xlink="http://www.w3.org/1999/xlink" width="200" height="200"><path d="M42.666667 512c0 259.626667 209.706667 469.333333 469.333333 469.333333s469.333333-209.706667 469.333333-469.333333S771.626667 42.666667 512 42.666667 42.666667 252.373333 42.666667 512z m34.944 0C77.738667 272.128 272.170667 77.738667 512 77.610667c239.872 0.128 434.261333 194.56 434.389333 434.389333-0.128 239.872-194.56 434.261333-434.389333 434.389333C272.384 941.354667 77.610667 751.701333 77.610667 512z m84.906666 4.949333c0 194.773333 159.744 354.56 354.432 354.56 194.773333 0 354.56-159.786667 354.56-354.56 0-194.688-159.786667-354.474667-354.56-354.474666-194.688 0-354.474667 159.786667-354.474666 354.474666z m29.952 0a323.84 323.84 0 0 1 324.48-324.48 323.84 323.84 0 0 1 324.522667 324.48 323.84 323.84 0 0 1-324.522667 324.522667 323.84 323.84 0 0 1-324.48-324.522667zM287.317333 512A223.744 223.744 0 0 0 512 736.682667 223.744 223.744 0 0 0 736.682667 512 223.744 223.744 0 0 0 512 287.317333 223.744 223.744 0 0 0 287.317333 512z m14.933334 0A210.986667 210.986667 0 0 1 512 302.293333 210.986667 210.986667 0 0 1 721.706667 512 210.986667 210.986667 0 0 1 512 721.706667 210.986667 210.986667 0 0 1 302.293333 512z m214.698666-89.856a100.138667 100.138667 0 0 1 99.925334 99.84 100.138667 100.138667 0 0 1-99.925334 99.925333 100.138667 100.138667 0 0 1-99.84-99.925333c5.034667-59.946667 44.928-99.882667 99.925334-99.882667l-0.085334 0.042667z" p-id="10719" fill="#d81e06"></path></svg>