<?xml version="1.0" standalone="no"?><!DOCTYPE svg PUBLIC "-//W3C//DTD SVG 1.1//EN" "http://www.w3.org/Graphics/SVG/1.1/DTD/svg11.dtd"><svg t="1762093056241" class="icon" viewBox="0 0 1192 1024" version="1.1" xmlns="http://www.w3.org/2000/svg" p-id="23368" xmlns:xlink="http://www.w3.org/1999/xlink" width="232.8125" height="200"><path d="M1008.570533 1009.481455a42.150614 42.150614 0 1 1-63.616205-55.342195l4.683402-4.683402a499.01644 499.01644 0 0 0 148.307717-354.533501 506.587939 506.587939 0 0 0-1013.175878 0 497.923646 497.923646 0 0 0 148.307717 354.533501 42.306728 42.306728 0 0 1-59.71337 60.025597 591.279451 591.279451 0 1 1 835.753014 0z" fill="#d81e06" p-id="23369"></path><path d="M42.228671 684.219214a42.306728 42.306728 0 0 1 0-84.535398h84.535399a42.306728 42.306728 0 0 1 0 84.535398z m1013.410048 0a42.306728 42.306728 0 1 1 0-84.535398h84.301229a42.306728 42.306728 0 0 1 0 84.535398z m-874.234964-434.463554a42.306728 42.306728 0 1 1 59.71337-60.025597l42.384785 42.150614a42.462841 42.462841 0 1 1-60.025597 60.025597z m717.575181 717.575181a42.462841 42.462841 0 0 1 60.025597-60.025597l42.150615 42.150614a42.462841 42.462841 0 1 1-60.025598 60.025597z m42.150614-777.600778a42.462841 42.462841 0 0 1 60.025598 60.025597l-42.150615 42.150614a42.462841 42.462841 0 0 1-60.025597-60.025597z m-717.575181 717.575181a42.462841 42.462841 0 0 1 60.025598 60.025597l-42.384785 42.150614a42.306728 42.306728 0 1 1-59.71337-60.025597zM549.128837 93.01782a42.150614 42.150614 0 0 1 84.301229 0v84.301228a42.150614 42.150614 0 1 1-84.301229 0z m155.254763 456.241372l-42.150614 11.396277a617.428444 617.428444 0 0 0-90.779935 28.959033 55.498309 55.498309 0 0 0-16.001622 70.251024 37.545269 37.545269 0 0 0 49.09766 20.450854l5.463969-2.575871a882.040634 882.040634 0 0 0 92.341068-99.288114l10.069313-11.396277 21.231421-25.368426z m-64.162602-70.251024l42.150614-11.396277a4152.616081 4152.616081 0 0 1 104.439856-24.822029l34.110775-7.805669 13.425751-3.122268a42.306728 42.306728 0 0 1 50.424624 32.081301 41.604218 41.604218 0 0 1-8.27401 35.437739c0 2.341701-4.137005 5.932309-8.274009 10.61571l-22.480328 27.944296c-23.417008 28.724863-47.302356 57.37167-70.251024 84.535399l-10.069313 11.630447A715.93599 715.93599 0 0 1 653.958976 749.94295 122.002612 122.002612 0 0 1 485.902915 710.914603a94.214429 94.214429 0 0 1-6.166478-11.08405 139.565368 139.565368 0 0 1 45.507052-181.013472 507.75879 507.75879 0 0 1 114.821396-39.808913z" fill="#d81e06" p-id="23370"></path></svg>