<svg xmlns="http://www.w3.org/2000/svg" xmlns:xlink="http://www.w3.org/1999/xlink" width="469" height="393" viewBox="0 0 469 393" fill="none">
<rect x="7" y="6" width="457" height="382"   fill="#D91616" >
</rect>
<rect x="7" y="8" width="269" height="260"   fill="#CCCCCC" >
</rect>
<rect  x="5" y="5" width="459" height="383" rx="10"    fill="#CCCCCC" fill-opacity="0">
</rect>
<path   fill="rgba(0, 0, 0, 1)"  d="M15 0L454 0C462.284 0 469 6.71573 469 15L469 378C469 386.284 462.284 393 454 393L15 393C6.71573 393 0 386.284 0 378L0 15C0 6.71573 6.71573 0 15 0ZM15 10C12.2386 10 10 12.2386 10 15L10 378C10 380.761 12.2386 383 15 383L454 383C456.761 383 459 380.761 459 378L459 15C459 12.2386 456.761 10 454 10L15 10Z">
</path>
<path    stroke="rgba(0, 0, 0, 1)" stroke-width="10"    d="M2 273L464 273">
</path>
<path    stroke="rgba(0, 0, 0, 1)" stroke-width="10"    d="M275 4L276 276">
</path>
<path    stroke="rgba(0, 0, 0, 1)" stroke-width="10"    d="M153 274.023L153.811 385.672">
</path>
<path d="M57 302.5L69.5 302.5L58.5 320L61 320L66 314L76.5 314L76.5 318.5L60 340L73 340L73 350L48 350L48 338.5L55 331.5L55 328.5L48 328.5L48 317L57 302.5Z" stroke="rgba(0, 0, 0, 1)" stroke-width="1"      fill="#FFFFFF" >
</path>
<path d="M48 354.5L73.2 354.5L73.2 363L48 363L48 354.5ZM76.72 354.5L87.31 354.5L86.8 312L76.72 312L76.72 302L112 302L112 312L99.91 312L100.41 354.5L112 354.5L112 363L76.72 363L76.72 354.5Z" stroke="rgba(0, 0, 0, 1)" stroke-width="1"      fill="#FFFFFF" >
</path>
<path d="M322 48L332 48L332 38L347 38L347 48L359 48L359 38L373.5 38L373.5 48L380.5 48L380.5 38L395.5 38L395.5 46L418 45L417.5 105L415 108L409 111.5L399 111.5L399 99.5L404 99.5L403.5 57L396 57L395.5 111.5L380.5 111.5L380.5 58.5L373.5 58.5L373.5 116.5L417.5 116.5L417.5 129.5L365.5 129.5L362 127.5L359 123L358.5 61L347 61L347.5 118L355.5 118L355.5 128.5L322.5 128.5L322.5 118L331.5 118L332 61L322 61L322 48Z" stroke="rgba(0, 0, 0, 1)" stroke-width="1"      fill="#FFFFFF" >
</path>
<path d="M324 155L417.5 155L417.5 163L376.5 163L376.5 166.5L417.5 166.5L417.5 193.5L404 193.5L404 174L376.5 174L376.5 193.5L362 193.5L362 174L337 174L337 193.5L324 193.5L324 166.5L362 166.5L362 163L324 163L324 155ZM342 176.5L359.5 176.5L359.5 183.5L342 183.5L342 176.5ZM342 185.5L359.5 185.5L359.5 191.5L342 191.5L342 185.5ZM380.5 176.5L399 176.5L399 183.5L380.5 183.5L380.5 176.5ZM380.5 185.5L399 185.5L399 191.5L380.5 191.5L380.5 185.5ZM327 195L417.5 195L417.5 203.5L342 203.5L342 206.5L417.5 206.5L417.5 215L342 214.5L342 218L417.5 218L417.5 226.5L342 226.5L342 238L340 241.5L335 245L324 245L324 233L327 233L327 195ZM344 228.5L359 228.5L359 236.5L377 236.5L377 244L344 243.5L344 228.5ZM366 228.5L388.5 228.5L393.5 231.5L396 228.5L408 228.5C408 229.4 408 231.5 408 231.5C408 231.5 404.15 233.95 402.5 235L417.5 235L417.5 244L388.5 244L366 228.5Z" stroke="rgba(0, 0, 0, 1)" stroke-width="1"      fill="#FFFFFF" >
</path>
<path d="M175.5 312L196 312L196 320L183.5 320L183.5 328.5L193.5 328.5L193.5 335.5L183.5 335.5L183.5 347L196 347L196 354L175.5 354L175.5 312ZM209 312L215.5 312L225.5 345.5L225.5 354L218.5 354L218.5 345.5L205 345.5L205 354L198.5 354L198.5 345.5L209 312ZM228.5 312C228.5 312 240 312 245 312L249 317C249.15 317.75 249.5 319.5 250 320.5C250.5 321.5 250.188 326.475 250 328.5L247 332L245.5 333L245.5 335L248 336L249 338.5L250 354L243.5 354L243.5 338.5L234.5 338.5L234.5 354L228.5 354L228.5 312ZM252 312L275.5 312L275.5 320.5L267.5 320.5L267.5 354L260 354L260 320.5L252 320.5L252 312ZM279 312L285 312L285 328.5L294.5 328.5L294.5 312L301.5 312L301.5 354L294.5 354L294.5 336L285 336L285 354L279 354L279 312ZM314.5 312L325 312L329 314.5L332 319.5L332.5 340.5C332.05 341.55 331 344 330.5 344C330 344 329.263 345.4 329 346L329 347L333.5 347L333.5 353.5L312.5 354C311.75 353.4 310 352 309.5 351.5C309 351 307.913 348.862 307.5 348L306.5 344L306.5 337L306.5 322.5L307.5 318.5L310 314.5L314.5 312ZM338 312L344.5 312L344.5 340.5L345.5 344.5L347.5 347C347.8 347.3 348.5 348 349 348C349.5 348 350.938 348 351.5 348L353 347C353.15 346.55 353.5 345.5 354 345.5C354.5 345.5 355.237 343.05 355.5 342L355.5 336.5L355.5 312L362 312L362.5 344L361 347.5L358.5 351L355.5 353.5L344.5 354L342 352.5L339.5 349.5C339.2 348.45 338.5 346 338.5 346C338.5 346 338.15 322.2 338 312ZM375 312C375.5 312 380.788 312 383 312L394 351L394 353.5L385.5 353.5L385.5 345.5L373.5 345.5L373.5 353.5L365.5 353.5L365.5 351L375 312ZM395.5 312L403.5 312L403.5 327L405 327L412 312L419 312L419 314.5L410 331.5L410 333.5L419 349.5L419 354L412 354L405 338.5L403.5 338.5L403.5 354L395.5 354L395.5 312ZM422 312L441 312L441 320.5L427.5 320.5L427.5 330L439 330L439 335.5L427.5 335.5L427.5 347L441 347L441 354L422 354L422 312Z" stroke="rgba(0, 0, 0, 1)" stroke-width="1"      fill="#FFFFFF" >
</path>
<path d="M211.5 322L213 322L216.5 338.5L208 338.5L211.5 322ZM234.5 320.5L243.5 320.5L244 324.5L243.5 330C240.8 330 234.5 330 234.5 330C234.5 330 234.5 323.35 234.5 320.5ZM317 319C318.05 319 320.5 319 321 319C321.5 319 323.638 321.1 324.5 322L325.5 326L325.5 340.5L324.5 344.5L321 347.5L317 347.5L314.5 346C314.05 345.25 313 343.5 313 342.5C313 341.5 313 330.575 313 326L314.5 322L317 319ZM378 324L380.5 324L384 336L384 338.5L375.5 338.5L375.5 336L378 324Z" stroke="rgba(0, 0, 0, 1)" stroke-width="1"      fill="#D43030" >
</path>
<path     fill="#D43030"  d="M73.5 200.5L140 200.5L143.59 200.5L171.5 200.5L191 210L179 200.5L213 200.5L213 228L143.5 228L143.59 200.5L140 200.5L140 228L73.5 228L73.5 200.5ZM141.5 67.5L233 145L226 151L211 137.5C186.325 137.65 128.5 138 127.5 138C126.5 138 115.65 132.05 111 129.5L119 114.5L101.5 103L141.5 67.5ZM98.5 81.5L104 88L97 94.5L100 99L71.5 122.5L66 118.5L73.5 110L69 105.5C77.6625 98.675 98 82.5 98.5 81.5ZM189.5 83C190.5 83.5 210.175 99.9875 218.5 107L214 112.5L220 118.5L215.5 124L185.5 99L189.5 93L185.5 88.5L189.5 83ZM226 179.5L233 179.5L233 218L226 218L226 228L215.5 228L215.5 188L226 188L226 179.5ZM54.5 155L61.5 155L61.5 165L68.5 165L68.5 203.5L61.5 203.5L61.5 194.5L54.5 194.5L54.5 155ZM95.5 107.5L108 117L110 119L105.5 128.5L105.5 135L112.5 135L112.5 138L73.5 138C69.45 142.2 60 152 59.5 151.5C59 151 54.4125 145.363 52.5 143L95.5 107.5ZM73.5 141.5L125 141.5L125 145.5L132 145.5L132 165L73.5 165L73.5 141.5ZM136.5 141.5C137.55 141.5 140 141.5 140 141.5C140 141.5 140 156.55 140 163L136.5 163L136.5 160L135 160L135 157L136.5 157L136.5 141.5ZM143.5 141.5C144.5 141.5 192.525 141.5 213 141.5L213 166.5L143.5 165L143.5 141.5ZM73.5 171.5C75 171.5 97.5125 171.5 107 171.5L107 196.5L73.5 196.5L73.5 171.5ZM112 171.5L143.5 171.5L154.5 179.5L154.5 193.5L160 193.5L163.5 196.5L112 196.5L112 171.5ZM152 171.5L175 171.5L175 196.5L171.5 196.5L160 191L160 176.5L152 171.5ZM179 171.5L213 171.5C213 179.5 213 196 213 196C213 196 188.45 196.5 179 196.5L179 171.5Z">
</path>
<path    stroke="rgba(0, 0, 0, 1)" stroke-width="1"    d="M140 200.5L73.5 200.5L73.5 228L140 228L140 200.5ZM140 200.5L143.59 200.5M143.59 200.5L171.5 200.5L191 210L179 200.5L213 200.5L213 228L143.5 228L143.59 200.5ZM141.5 67.5L101.5 103L119 114.5L111 129.5C115.65 132.05 126.5 138 127.5 138C128.5 138 186.325 137.65 211 137.5L226 151L233 145L141.5 67.5ZM98.5 81.5C98 82.5 77.6625 98.675 69 105.5L73.5 110L66 118.5L71.5 122.5L100 99L97 94.5L104 88L98.5 81.5ZM189.5 83C190.5 83.5 210.175 99.9875 218.5 107L214 112.5L220 118.5L215.5 124L185.5 99L189.5 93L185.5 88.5L189.5 83ZM226 179.5L233 179.5L233 218L226 218L226 228L215.5 228L215.5 188L226 188L226 179.5ZM54.5 155L61.5 155L61.5 165L68.5 165L68.5 203.5L61.5 203.5L61.5 194.5L54.5 194.5L54.5 155ZM52.5 143L95.5 107.5L108 117L110 119L105.5 128.5L105.5 135L112.5 135L112.5 138L73.5 138C69.45 142.2 60 152 59.5 151.5C59 151 54.4125 145.363 52.5 143ZM73.5 141.5L125 141.5L125 145.5L132 145.5L132 165L73.5 165L73.5 141.5ZM136.5 141.5C137.55 141.5 140 141.5 140 141.5C140 141.5 140 156.55 140 163L136.5 163L136.5 160L135 160L135 157L136.5 157L136.5 141.5ZM143.5 141.5C144.5 141.5 192.525 141.5 213 141.5L213 166.5L143.5 165L143.5 141.5ZM73.5 171.5C75 171.5 97.5125 171.5 107 171.5L107 196.5L73.5 196.5L73.5 171.5ZM112 171.5L143.5 171.5L154.5 179.5L154.5 193.5L160 193.5L163.5 196.5L112 196.5L112 171.5ZM152 171.5L175 171.5L175 196.5L171.5 196.5L160 191L160 176.5L152 171.5ZM179 171.5L213 171.5C213 179.5 213 196 213 196C213 196 188.45 196.5 179 196.5L179 171.5Z">
</path>
</svg>
