<?xml version="1.0" standalone="no"?>
<!DOCTYPE svg PUBLIC "-//W3C//DTD SVG 1.1//EN" "http://www.w3.org/Graphics/SVG/1.1/DTD/svg11.dtd"><svg t="1761573611933"
	class="icon" viewBox="-75 -75 1200 1200" version="1.1" xmlns="http://www.w3.org/2000/svg" p-id="7149"
	xmlns:xlink="http://www.w3.org/1999/xlink" width="250" height="250">
	<path
		d="M734.870588 602.352941c0 24.094118-18.070588 48.188235-48.188235 48.188235H228.894118c-30.117647 0-48.188235-24.094118-48.188236-48.188235s18.070588-48.188235 48.188236-48.188235h469.835294c18.070588 0 36.141176 24.094118 36.141176 48.188235zM602.352941 783.058824c0 24.094118-18.070588 48.188235-48.188235 48.188235H228.894118c-30.117647 0-48.188235-24.094118-48.188236-48.188235s18.070588-48.188235 48.188236-48.188236h331.294117c24.094118 0 42.164706 24.094118 42.164706 48.188236zM421.647059 421.647059c0 24.094118-18.070588 48.188235-48.188235 48.188235H228.894118c-30.117647 0-48.188235-24.094118-48.188236-48.188235s18.070588-48.188235 48.188236-48.188235h150.588235c24.094118 0 42.164706 24.094118 42.164706 48.188235zM843.294118 240.941176c0 24.094118-18.070588 48.188235-48.188236 48.188236H228.894118c-30.117647 0-48.188235-24.094118-48.188236-48.188236s18.070588-48.188235 48.188236-48.188235h572.235294c24.094118 0 42.164706 24.094118 42.164706 48.188235z"
		p-id="7150" fill="#d81e06"></path>
	<path
		d="M873.411765 1024h-722.82353C66.258824 1024 0 957.741176 0 873.411765v-722.82353C0 66.258824 66.258824 0 150.588235 0h722.82353C957.741176 0 1024 66.258824 1024 150.588235v722.82353c0 84.329412-66.258824 150.588235-150.588235 150.588235zM150.588235 60.235294C102.4 60.235294 60.235294 102.4 60.235294 150.588235v722.82353c0 48.188235 42.164706 90.352941 90.352941 90.352941h722.82353c48.188235 0 90.352941-42.164706 90.352941-90.352941v-722.82353c0-48.188235-42.164706-90.352941-90.352941-90.352941h-722.82353z"
		p-id="7151" fill="#d81e06"></path>
</svg>