<?xml version="1.0" standalone="no"?><!DOCTYPE svg PUBLIC "-//W3C//DTD SVG 1.1//EN" "http://www.w3.org/Graphics/SVG/1.1/DTD/svg11.dtd"><svg t="1762092922878" class="icon" viewBox="0 0 1024 1024" version="1.1" xmlns="http://www.w3.org/2000/svg" p-id="20596" xmlns:xlink="http://www.w3.org/1999/xlink" width="200" height="200"><path d="M848.81856 104.768L766.00256 21.76A12.8 12.8 0 0 1 775.09056 0h216.96a32 32 0 0 1 32 32v217.344a12.8 12.8 0 0 1-21.888 9.024l-63.04-63.104-274.688 275.136a63.808 63.808 0 0 1-90.304 0L395.57056 291.648 109.10656 578.56a63.808 63.808 0 0 1-90.368 0 64.064 64.064 0 0 1 0-90.496l331.712-332.16a63.808 63.808 0 0 1 90.368 0l178.432 178.688 229.568-229.824zM117.29856 640h106.368a32 32 0 0 1 32 32V1024H85.17056v-352a32 32 0 0 1 32-32z m255.552-213.312h106.368a32 32 0 0 1 32 32V1024H340.85056V458.688a32 32 0 0 1 32-32z m255.616 128h106.368a32 32 0 0 1 32 32V1024H596.46656V586.688a32 32 0 0 1 32-32z m255.552-213.376h106.432a32 32 0 0 1 32 32V1024h-170.432V373.312a32 32 0 0 1 32-32z" fill="#59AAFA" p-id="20597"></path></svg>