<?xml version="1.0" standalone="no"?><!DOCTYPE svg PUBLIC "-//W3C//DTD SVG 1.1//EN" "http://www.w3.org/Graphics/SVG/1.1/DTD/svg11.dtd"><svg t="1760282268048" class="icon" viewBox="0 0 1024 1024" version="1.1" xmlns="http://www.w3.org/2000/svg" p-id="8076" xmlns:xlink="http://www.w3.org/1999/xlink" width="200" height="200"><path d="M301.176471 1024 301.176471 903.529412 301.176471 843.294118 301.176471 783.058824 301.176471 722.823529 301.176471 662.588235 301.176471 602.352941 301.176471 542.117647 301.176471 481.882353 301.176471 421.647059 301.176471 361.411765 301.176471 301.176471 301.176471 240.941176 301.176471 180.705882 301.176471 120.470588 301.176471 0 722.823529 0 722.823529 1024 301.176471 1024ZM662.588235 60.235294 361.411765 60.235294 361.411765 120.470588 542.117647 120.470588 542.117647 180.705882 361.411765 180.705882 361.411765 240.941176 481.882353 240.941176 481.882353 301.176471 361.411765 301.176471 361.411765 361.411765 481.882353 361.411765 481.882353 421.647059 361.411765 421.647059 361.411765 481.882353 542.117647 481.882353 542.117647 542.117647 361.411765 542.117647 361.411765 602.352941 481.882353 602.352941 481.882353 662.588235 361.411765 662.588235 361.411765 722.823529 481.882353 722.823529 481.882353 783.058824 361.411765 783.058824 361.411765 843.294118 542.117647 843.294118 542.117647 903.529412 361.411765 903.529412 361.411765 963.764706 662.588235 963.764706 662.588235 60.235294Z" p-id="8077" fill="#1296db"></path></svg>